<mxfile host="app.diagrams.net" modified="2022-10-15T09:29:19.591Z" agent="5.0 (Windows NT 10.0; Win64; x64) AppleWebKit/537.36 (KHTML, like Gecko) Chrome/106.0.0.0 Safari/537.36" etag="kj7TddJ-Nn97u94rQteS" version="20.4.0" type="github">
  <diagram id="f20_eDvz2C0OKqHQl-1B" name="Page-1">
    <mxGraphModel dx="1038" dy="621" grid="1" gridSize="10" guides="1" tooltips="1" connect="1" arrows="1" fold="1" page="1" pageScale="1" pageWidth="1700" pageHeight="1100" math="0" shadow="0">
      <root>
        <mxCell id="0" />
        <mxCell id="1" parent="0" />
        <mxCell id="wUUNpgtT-ID-qIYKt-lW-14" style="edgeStyle=orthogonalEdgeStyle;rounded=0;orthogonalLoop=1;jettySize=auto;html=1;exitX=0.5;exitY=1;exitDx=0;exitDy=0;" edge="1" parent="1" source="wUUNpgtT-ID-qIYKt-lW-1" target="wUUNpgtT-ID-qIYKt-lW-2">
          <mxGeometry relative="1" as="geometry" />
        </mxCell>
        <mxCell id="wUUNpgtT-ID-qIYKt-lW-1" value="Mulai" style="ellipse;whiteSpace=wrap;html=1;" vertex="1" parent="1">
          <mxGeometry x="390" y="120" width="100" height="40" as="geometry" />
        </mxCell>
        <mxCell id="wUUNpgtT-ID-qIYKt-lW-15" style="edgeStyle=orthogonalEdgeStyle;rounded=0;orthogonalLoop=1;jettySize=auto;html=1;exitX=0.5;exitY=1;exitDx=0;exitDy=0;entryX=0.5;entryY=0;entryDx=0;entryDy=0;" edge="1" parent="1" source="wUUNpgtT-ID-qIYKt-lW-2" target="wUUNpgtT-ID-qIYKt-lW-3">
          <mxGeometry relative="1" as="geometry" />
        </mxCell>
        <mxCell id="wUUNpgtT-ID-qIYKt-lW-2" value="Google colab, library pyMongo, MongoDb" style="shape=parallelogram;perimeter=parallelogramPerimeter;whiteSpace=wrap;html=1;fixedSize=1;" vertex="1" parent="1">
          <mxGeometry x="365" y="180" width="150" height="50" as="geometry" />
        </mxCell>
        <mxCell id="wUUNpgtT-ID-qIYKt-lW-18" style="edgeStyle=orthogonalEdgeStyle;rounded=0;orthogonalLoop=1;jettySize=auto;html=1;exitX=0.5;exitY=1;exitDx=0;exitDy=0;entryX=0.5;entryY=0;entryDx=0;entryDy=0;" edge="1" parent="1" source="wUUNpgtT-ID-qIYKt-lW-3" target="wUUNpgtT-ID-qIYKt-lW-4">
          <mxGeometry relative="1" as="geometry" />
        </mxCell>
        <mxCell id="wUUNpgtT-ID-qIYKt-lW-3" value="Install library pyMongo" style="rounded=0;whiteSpace=wrap;html=1;" vertex="1" parent="1">
          <mxGeometry x="370" y="260" width="140" height="30" as="geometry" />
        </mxCell>
        <mxCell id="wUUNpgtT-ID-qIYKt-lW-19" style="edgeStyle=orthogonalEdgeStyle;rounded=0;orthogonalLoop=1;jettySize=auto;html=1;exitX=0.5;exitY=1;exitDx=0;exitDy=0;entryX=0.5;entryY=0;entryDx=0;entryDy=0;" edge="1" parent="1" source="wUUNpgtT-ID-qIYKt-lW-4" target="wUUNpgtT-ID-qIYKt-lW-5">
          <mxGeometry relative="1" as="geometry" />
        </mxCell>
        <mxCell id="wUUNpgtT-ID-qIYKt-lW-4" value="Membuat konektivitas MongoDB dengan bahasa python" style="rounded=0;whiteSpace=wrap;html=1;" vertex="1" parent="1">
          <mxGeometry x="365" y="310" width="155" height="60" as="geometry" />
        </mxCell>
        <mxCell id="wUUNpgtT-ID-qIYKt-lW-20" style="edgeStyle=orthogonalEdgeStyle;rounded=0;orthogonalLoop=1;jettySize=auto;html=1;exitX=1;exitY=0.5;exitDx=0;exitDy=0;entryX=0;entryY=0.5;entryDx=0;entryDy=0;" edge="1" parent="1" source="wUUNpgtT-ID-qIYKt-lW-5" target="wUUNpgtT-ID-qIYKt-lW-6">
          <mxGeometry relative="1" as="geometry" />
        </mxCell>
        <mxCell id="wUUNpgtT-ID-qIYKt-lW-5" value="Membuat database baru menggunakan bahasa python" style="rounded=0;whiteSpace=wrap;html=1;" vertex="1" parent="1">
          <mxGeometry x="362.5" y="390" width="155" height="50" as="geometry" />
        </mxCell>
        <mxCell id="wUUNpgtT-ID-qIYKt-lW-21" style="edgeStyle=orthogonalEdgeStyle;rounded=0;orthogonalLoop=1;jettySize=auto;html=1;exitX=0.5;exitY=1;exitDx=0;exitDy=0;" edge="1" parent="1" source="wUUNpgtT-ID-qIYKt-lW-6" target="wUUNpgtT-ID-qIYKt-lW-7">
          <mxGeometry relative="1" as="geometry" />
        </mxCell>
        <mxCell id="wUUNpgtT-ID-qIYKt-lW-6" value="Membuat collection menggunakan bahasa python" style="rounded=0;whiteSpace=wrap;html=1;" vertex="1" parent="1">
          <mxGeometry x="560" y="140" width="155" height="70" as="geometry" />
        </mxCell>
        <mxCell id="wUUNpgtT-ID-qIYKt-lW-23" style="edgeStyle=orthogonalEdgeStyle;rounded=0;orthogonalLoop=1;jettySize=auto;html=1;exitX=0.5;exitY=1;exitDx=0;exitDy=0;entryX=0.5;entryY=0;entryDx=0;entryDy=0;" edge="1" parent="1" source="wUUNpgtT-ID-qIYKt-lW-7" target="wUUNpgtT-ID-qIYKt-lW-10">
          <mxGeometry relative="1" as="geometry" />
        </mxCell>
        <mxCell id="wUUNpgtT-ID-qIYKt-lW-7" value="Melakukan operasi database dengan query python" style="rounded=0;whiteSpace=wrap;html=1;" vertex="1" parent="1">
          <mxGeometry x="560" y="240" width="155" height="60" as="geometry" />
        </mxCell>
        <mxCell id="wUUNpgtT-ID-qIYKt-lW-24" style="edgeStyle=orthogonalEdgeStyle;rounded=0;orthogonalLoop=1;jettySize=auto;html=1;exitX=0.5;exitY=1;exitDx=0;exitDy=0;entryX=0.5;entryY=0;entryDx=0;entryDy=0;" edge="1" parent="1" source="wUUNpgtT-ID-qIYKt-lW-10" target="wUUNpgtT-ID-qIYKt-lW-11">
          <mxGeometry relative="1" as="geometry" />
        </mxCell>
        <mxCell id="wUUNpgtT-ID-qIYKt-lW-10" value="Database MongoDB" style="shape=parallelogram;perimeter=parallelogramPerimeter;whiteSpace=wrap;html=1;fixedSize=1;" vertex="1" parent="1">
          <mxGeometry x="560" y="330" width="150" height="40" as="geometry" />
        </mxCell>
        <mxCell id="wUUNpgtT-ID-qIYKt-lW-11" value="Selesai" style="ellipse;whiteSpace=wrap;html=1;" vertex="1" parent="1">
          <mxGeometry x="585" y="400" width="100" height="40" as="geometry" />
        </mxCell>
      </root>
    </mxGraphModel>
  </diagram>
</mxfile>
